<svg width="512" height="512" viewBox="0 0 512 512" fill="none" xmlns="http://www.w3.org/2000/svg">
  <defs>
    <linearGradient id="bg" x1="64" y1="48" x2="448" y2="464" gradientUnits="userSpaceOnUse">
      <stop stop-color="#16324F"/>
      <stop offset="1" stop-color="#0B1523"/>
    </linearGradient>
    <linearGradient id="ring" x1="150" y1="116" x2="364" y2="392" gradientUnits="userSpaceOnUse">
      <stop stop-color="#4FE3C1"/>
      <stop offset="1" stop-color="#3E8BFF"/>
    </linearGradient>
    <linearGradient id="accent" x1="210" y1="218" x2="321" y2="334" gradientUnits="userSpaceOnUse">
      <stop stop-color="#FFB454"/>
      <stop offset="1" stop-color="#FF6B3D"/>
    </linearGradient>
    <filter id="shadow" x="72" y="76" width="368" height="360" filterUnits="userSpaceOnUse" color-interpolation-filters="sRGB">
      <feFlood flood-opacity="0" result="BackgroundImageFix"/>
      <feColorMatrix in="SourceAlpha" type="matrix" values="0 0 0 0 0 0 0 0 0 0 0 0 0 0 0 0 0 0 127 0" result="hardAlpha"/>
      <feOffset dy="18"/>
      <feGaussianBlur stdDeviation="18"/>
      <feComposite in2="hardAlpha" operator="out"/>
      <feColorMatrix type="matrix" values="0 0 0 0 0.0196078 0 0 0 0 0.0588235 0 0 0 0 0.121569 0 0 0 0.34 0"/>
      <feBlend mode="normal" in2="BackgroundImageFix" result="effect1_dropShadow_1_2"/>
      <feBlend mode="normal" in="SourceGraphic" in2="effect1_dropShadow_1_2" result="shape"/>
    </filter>
  </defs>

  <rect x="24" y="24" width="464" height="464" rx="120" fill="url(#bg)"/>
  <rect x="36" y="36" width="440" height="440" rx="108" stroke="rgba(255,255,255,0.08)" stroke-width="2"/>

  <g filter="url(#shadow)">
    <circle cx="256" cy="258" r="114" fill="#EFF7FF"/>
    <circle cx="256" cy="258" r="96" fill="#DFF5FF"/>
    <path d="M173 236C183.8 199.2 216.7 172 256 172C295.3 172 328.2 199.2 339 236" stroke="#16324F" stroke-width="22" stroke-linecap="round"/>
    <path d="M171 244H341C349.8 244 357 251.2 357 260V300C357 308.8 349.8 316 341 316H171C162.2 316 155 308.8 155 300V260C155 251.2 162.2 244 171 244Z" fill="#16324F"/>
    <circle cx="195" cy="304" r="22" fill="#0F2237"/>
    <circle cx="317" cy="304" r="22" fill="#0F2237"/>
    <path d="M186 235L208 206H303L326 235" stroke="#16324F" stroke-width="18" stroke-linecap="round" stroke-linejoin="round"/>
    <circle cx="317" cy="301" r="64" fill="none" stroke="url(#ring)" stroke-width="24"/>
    <path d="M358 342L389 373" stroke="url(#ring)" stroke-width="24" stroke-linecap="round"/>
    <path d="M289 272H327C334.732 272 341 278.268 341 286V319C341 326.732 334.732 333 327 333H296C288.268 333 282 326.732 282 319V279C282 275.134 285.134 272 289 272Z" fill="url(#accent)"/>
    <circle cx="316" cy="287" r="7" fill="#EFF7FF"/>
    <path d="M311 293L297 306" stroke="#EFF7FF" stroke-width="8" stroke-linecap="round"/>
    <path d="M303 286H319" stroke="#EFF7FF" stroke-width="7" stroke-linecap="round"/>
    <path d="M307 302C307 297.582 310.582 294 315 294H318C322.418 294 326 297.582 326 302C326 305.508 323.739 308.487 320.6 309.576L311.4 312.424C308.261 313.513 306 316.492 306 320C306 324.418 309.582 328 314 328H317C321.418 328 325 324.418 325 320" stroke="#EFF7FF" stroke-width="7" stroke-linecap="round"/>
  </g>
</svg>
